<svg width="24" height="9" viewBox="0 0 24 9" fill="none" xmlns="http://www.w3.org/2000/svg">
<path d="M15.7096 4.93087L15.9396 4.99989C15.9243 5.06507 15.9013 5.11875 15.8668 5.16093C15.8323 5.20311 15.7939 5.23762 15.7441 5.25679C15.6942 5.2798 15.6329 5.2913 15.5562 5.2913C15.4642 5.2913 15.3913 5.27979 15.33 5.25295C15.2724 5.22611 15.2226 5.1801 15.1804 5.11108C15.1382 5.0459 15.1152 4.95771 15.1152 4.85418C15.1152 4.71614 15.1536 4.60878 15.2264 4.53209C15.2993 4.45541 15.4067 4.4209 15.5409 4.4209C15.6482 4.4209 15.7287 4.44391 15.7901 4.48608C15.8514 4.52826 15.8975 4.59344 15.9243 4.68547L15.6942 4.73532C15.6866 4.70848 15.6789 4.6893 15.6674 4.6778C15.6521 4.65863 15.6367 4.64329 15.6137 4.63179C15.5907 4.62028 15.5677 4.61645 15.5447 4.61645C15.4872 4.61645 15.4412 4.63946 15.4105 4.6893C15.3875 4.72381 15.376 4.78133 15.376 4.85418C15.376 4.94621 15.3913 5.01139 15.4182 5.0459C15.445 5.08041 15.4872 5.09958 15.537 5.09958C15.5869 5.09958 15.6252 5.08424 15.6482 5.0574C15.6789 5.02289 15.6981 4.98455 15.7096 4.93087Z" fill="#225E63"/>
<path d="M16.0317 4.85314C16.0317 4.7151 16.0701 4.60774 16.1468 4.53105C16.2235 4.45436 16.3308 4.41602 16.4689 4.41602C16.6107 4.41602 16.7181 4.45436 16.7948 4.52721C16.8715 4.6039 16.9098 4.70743 16.9098 4.84547C16.9098 4.94517 16.8945 5.02569 16.86 5.08704C16.8255 5.14839 16.7794 5.19824 16.7143 5.23275C16.6529 5.26726 16.5724 5.28643 16.4804 5.28643C16.3845 5.28643 16.3078 5.27109 16.2426 5.24042C16.1813 5.20974 16.1314 5.16373 16.0893 5.09471C16.0471 5.02569 16.0317 4.95284 16.0317 4.85314ZM16.2925 4.85314C16.2925 4.9375 16.3078 4.99885 16.3385 5.03719C16.3692 5.07554 16.4113 5.09471 16.4689 5.09471C16.5264 5.09471 16.5685 5.07554 16.5992 5.04103C16.6299 5.00268 16.6452 4.9375 16.6452 4.84547C16.6452 4.76495 16.6299 4.70743 16.5954 4.67292C16.5647 4.63458 16.5187 4.61924 16.465 4.61924C16.4113 4.61924 16.3692 4.63841 16.3385 4.67676C16.3078 4.70743 16.2925 4.76878 16.2925 4.85314Z" fill="#225E63"/>
<path d="M17.0438 4.43164H17.3851L17.5154 4.94544L17.6458 4.43164H17.9871V5.2752H17.7723V4.63103L17.6075 5.2752H17.4157L17.2509 4.63103V5.2752H17.0361V4.43164H17.0438Z" fill="#225E63"/>
<path d="M18.1558 4.43164H18.589C18.6849 4.43164 18.7539 4.45465 18.7999 4.50066C18.8459 4.54667 18.869 4.60802 18.869 4.69238C18.869 4.77673 18.8421 4.84575 18.7923 4.89176C18.7424 4.94161 18.6619 4.96462 18.5584 4.96462H18.4165V5.27903H18.1558V4.43164ZM18.4165 4.79207H18.4817C18.5315 4.79207 18.566 4.7844 18.589 4.76523C18.6082 4.74606 18.6197 4.72689 18.6197 4.70005C18.6197 4.67321 18.6121 4.6502 18.5929 4.63103C18.5737 4.61185 18.543 4.60419 18.4932 4.60419H18.4203V4.79207H18.4165Z" fill="#225E63"/>
<path d="M19.0073 4.43164H19.2681V5.06814H19.6745V5.2752H19.0073V4.43164Z" fill="#225E63"/>
<path d="M19.8047 4.43164H20.0654V5.2752H19.8047V4.43164Z" fill="#225E63"/>
<path d="M20.7709 5.13326H20.4757L20.4335 5.27129H20.1689L20.4872 4.42773H20.7709L21.0892 5.27129H20.817L20.7709 5.13326ZM20.7173 4.95304L20.6252 4.65013L20.5332 4.95304H20.7173Z" fill="#225E63"/>
<path d="M21.1699 4.43164H21.4115L21.7297 4.89943V4.43164H21.9751V5.2752H21.7297L21.4153 4.81124V5.2752H21.1699V4.43164Z" fill="#225E63"/>
<path d="M22.0898 4.43164H22.8836V4.6387H22.619V5.2752H22.3582V4.6387H22.0937V4.43164H22.0898Z" fill="#225E63"/>
<path d="M12.5728 5.78605L13.3282 5.54832L13.0828 5.00384C12.9026 5.23006 12.7224 5.52148 12.5728 5.78605ZM12.3159 3.29755L10.8359 0L0 0.613497L3.0023 8.80369L8.78067 6.98237C8.41257 6.45323 8.27837 5.82439 8.70398 5.51764C9.17944 5.17255 9.89647 5.57132 10.3528 6.13497C10.7937 5.39878 12.0322 3.68482 12.3159 3.29755Z" fill="#225E63"/>
<path d="M10.4983 2.31275C10.9507 2.31275 11.3188 1.96766 11.3188 1.53821C11.3188 1.10876 10.9507 0.763672 10.4983 0.763672C10.0458 0.763672 9.67773 1.10876 9.67773 1.53821C9.67773 1.96382 10.0458 2.31275 10.4983 2.31275ZM9.82727 2.64634H11.1693V6.15477H9.82727V2.64634Z" fill="#FEFEFE"/>
<path d="M9.16393 3.67051C9.17543 3.67435 9.1831 3.67051 9.1831 3.65901V2.76944C9.1831 2.75794 9.17543 2.74643 9.16393 2.73876C9.16393 2.73876 8.98755 2.62373 8.45074 2.59306C8.4239 2.57772 7.95227 2.57389 7.82574 2.59306C5.87022 2.75027 5.79736 4.16514 5.79736 4.22649V4.57158C5.79736 4.61376 5.79736 6.05931 7.82574 6.18584C8.02512 6.20118 8.41239 6.18584 8.45074 6.18584C8.91853 6.18584 9.24062 6.04397 9.24062 6.04397C9.25212 6.04014 9.25979 6.02864 9.25979 6.01713V5.18508C9.25979 5.17358 9.25212 5.16974 9.24445 5.17741C9.24445 5.17741 9.09874 5.29244 8.46224 5.35762C8.28203 5.3768 8.19384 5.36913 8.12865 5.35762C7.22374 5.20425 7.18157 4.54474 7.18157 4.54474C7.18157 4.53324 7.17773 4.51407 7.17773 4.5064V4.25333C7.17773 4.24183 7.17773 4.22266 7.18157 4.21499C7.18157 4.21499 7.24292 3.50563 8.12865 3.42895H8.46224C8.84951 3.47879 9.16393 3.67051 9.16393 3.67051Z" fill="#FEFEFE"/>
<path d="M2.07031 6.14324C2.07031 6.15475 2.07798 6.16242 2.08948 6.16242H3.397C3.4085 6.16242 3.41617 6.15475 3.41617 6.14324V5.1233C3.41617 5.1118 3.42384 5.10413 3.43534 5.10413C3.43534 5.10413 5.52507 5.25367 5.52507 3.85413C5.52507 2.746 4.21372 2.62714 3.78427 2.64631C3.7766 2.64631 2.08948 2.64631 2.08948 2.64631C2.07798 2.64631 2.07031 2.65398 2.07031 2.66548V6.14324ZM3.39317 4.32576V3.40935H3.71525C3.71525 3.40935 4.17921 3.42852 4.21755 3.74677C4.22522 3.76978 4.22522 3.92698 4.21755 3.93465C4.1562 4.30659 3.75359 4.32576 3.75359 4.32576H3.39317Z" fill="#FEFEFE"/>
<path d="M10.5369 7.84789C10.6443 7.84789 10.7287 7.84789 10.8667 7.78654C11.3422 7.53731 12.9487 3.61476 14.6435 2.40694C14.655 2.39927 14.6665 2.38777 14.6742 2.37626C14.6857 2.36092 14.6857 2.34559 14.6857 2.34559C14.6857 2.34559 14.6857 2.26507 14.4365 2.26507C12.9296 2.22289 11.3613 5.38623 10.5369 6.63623C10.5254 6.65157 10.4718 6.63623 10.4718 6.63623C10.4718 6.63623 9.91961 5.98439 9.44031 5.73516C9.42881 5.73132 9.37513 5.71215 9.31761 5.71599C9.27927 5.71599 9.05688 5.762 8.95335 5.86936C8.83065 5.99973 8.83449 6.07258 8.83449 6.22979C8.83449 6.24129 8.84215 6.29497 8.85749 6.32181C8.97636 6.52887 9.50933 7.26507 9.95028 7.67151C10.0155 7.72135 10.119 7.84789 10.5369 7.84789Z" fill="#2BBC5D"/>
<path d="M15.0884 1.22168H16.3422C16.5914 1.22168 16.7908 1.25619 16.9404 1.32137C17.0937 1.39039 17.2203 1.48625 17.3161 1.60895C17.4158 1.73548 17.4887 1.88119 17.5309 2.04607C17.5769 2.21095 17.5999 2.38733 17.5999 2.57521C17.5999 2.86662 17.5654 3.09285 17.5002 3.25389C17.435 3.41494 17.343 3.54914 17.2241 3.66034C17.1052 3.7677 16.9787 3.84055 16.8445 3.87889C16.6605 3.92874 16.4918 3.95175 16.3422 3.95175H15.0884V1.22168ZM15.9319 1.83901V3.33058H16.139C16.3154 3.33058 16.4419 3.31141 16.5148 3.27307C16.5876 3.23472 16.649 3.1657 16.6911 3.06984C16.7333 2.97399 16.7563 2.81294 16.7563 2.59438C16.7563 2.30297 16.7103 2.10742 16.6145 2.00006C16.5186 1.89269 16.3652 1.83901 16.1428 1.83901H15.9319Z" fill="#225E63"/>
<path d="M17.834 3.05072L18.6392 3.00087C18.6584 3.13124 18.6929 3.23093 18.7466 3.29995C18.8348 3.41115 18.9575 3.46483 19.1185 3.46483C19.2374 3.46483 19.3332 3.43799 19.3984 3.38047C19.4636 3.32295 19.4981 3.25777 19.4981 3.18492C19.4981 3.1159 19.4674 3.05072 19.4061 2.9932C19.3447 2.93568 19.199 2.88584 18.9728 2.83599C18.6009 2.75163 18.3401 2.64044 18.1791 2.5024C18.018 2.36436 17.9413 2.18798 17.9413 1.97326C17.9413 1.83139 17.9835 1.70102 18.064 1.57448C18.1446 1.44795 18.2673 1.35209 18.4321 1.27924C18.597 1.20638 18.8194 1.17188 19.1032 1.17188C19.4521 1.17188 19.7205 1.23706 19.9007 1.36743C20.0848 1.4978 20.1921 1.70485 20.2266 1.9886L19.4291 2.03461C19.4061 1.91191 19.3639 1.82372 19.2949 1.7662C19.2259 1.70869 19.1338 1.68185 19.015 1.68185C18.9153 1.68185 18.8424 1.70102 18.7926 1.7432C18.7427 1.78537 18.7197 1.83522 18.7197 1.89657C18.7197 1.93875 18.7389 1.98093 18.7811 2.01544C18.8194 2.04995 18.9153 2.08445 19.0648 2.11513C19.4329 2.19565 19.6975 2.27617 19.8585 2.35669C20.0196 2.43722 20.1346 2.54074 20.2075 2.65961C20.2803 2.77847 20.3148 2.91651 20.3148 3.06605C20.3148 3.24243 20.265 3.40348 20.1691 3.54918C20.0732 3.69872 19.9352 3.80992 19.7627 3.88661C19.5901 3.96329 19.3677 4.00164 19.1032 4.00164C18.6392 4.00164 18.3171 3.91345 18.1369 3.73323C17.9605 3.55302 17.8608 3.32679 17.834 3.05072Z" fill="#225E63"/>
<path d="M20.5293 3.05072L21.3345 3.00087C21.3537 3.13124 21.3882 3.23093 21.4419 3.29995C21.5301 3.41115 21.6528 3.46483 21.8138 3.46483C21.9327 3.46483 22.0285 3.43799 22.0937 3.38047C22.1589 3.32295 22.1934 3.25777 22.1934 3.18492C22.1934 3.1159 22.1627 3.05072 22.1014 2.9932C22.04 2.93568 21.8943 2.88584 21.6681 2.83599C21.2962 2.75163 21.0354 2.64044 20.8744 2.5024C20.7172 2.36436 20.6367 2.18798 20.6367 1.97326C20.6367 1.83139 20.6788 1.70102 20.7594 1.57448C20.8399 1.44795 20.9626 1.35209 21.1275 1.27924C21.2923 1.20638 21.5147 1.17188 21.7985 1.17188C22.1474 1.17188 22.4158 1.23706 22.596 1.36743C22.7801 1.4978 22.8874 1.70485 22.9219 1.9886L22.1244 2.03461C22.1014 1.91191 22.0592 1.82372 21.9902 1.7662C21.9212 1.70869 21.8291 1.68185 21.7103 1.68185C21.6106 1.68185 21.5377 1.70102 21.4879 1.7432C21.438 1.78537 21.415 1.83522 21.415 1.89657C21.415 1.93875 21.4342 1.98093 21.4764 2.01544C21.5147 2.04995 21.6106 2.08445 21.7601 2.11513C22.1282 2.19565 22.3928 2.27617 22.5538 2.35669C22.7149 2.43722 22.8299 2.54074 22.9028 2.65961C22.9756 2.77847 23.0101 2.91651 23.0101 3.06605C23.0101 3.24243 22.9603 3.40348 22.8644 3.54918C22.7686 3.69872 22.6305 3.80992 22.458 3.88661C22.2854 3.96329 22.063 4.00164 21.7985 4.00164C21.3345 4.00164 21.0124 3.91345 20.8322 3.73323C20.652 3.55302 20.5523 3.32679 20.5293 3.05072Z" fill="#225E63"/>
</svg>
