<svg width="15" height="18" viewBox="0 0 15 18" fill="none" xmlns="http://www.w3.org/2000/svg">
<path fill-rule="evenodd" clip-rule="evenodd" d="M1.9 3.59961H12.5C13.5571 3.59961 14.4 4.52665 14.4 5.65455V15.9447C14.4 17.088 13.5429 17.9996 12.5 17.9996H1.9C0.857143 17.9996 0 17.0726 0 15.9447V5.65455C0 4.52665 0.857143 3.59961 1.9 3.59961Z" fill="#D02127"/>
<path d="M1.96338 9.20996H3.41305L3.9624 11.1876L4.54227 9.20996H6.00721V9.65803H5.85461C5.76305 9.65803 5.71727 9.67348 5.6715 9.71983C5.64098 9.75073 5.62572 9.82799 5.62572 9.92069V11.7593C5.62572 11.8366 5.62572 11.8829 5.64098 11.9138C5.65624 11.9447 5.6715 11.9602 5.70201 11.9756C5.73253 11.9911 5.77831 12.0065 5.83935 12.0065H6.02247V12.4391H4.46598V11.9911H4.58805C4.67961 11.9911 4.74065 11.9911 4.77117 11.9756C4.80169 11.9602 4.81695 11.9447 4.83221 11.9138C4.84747 11.8829 4.84747 11.8366 4.84747 11.7593V9.76618L4.06922 12.4391H3.62669L2.87896 9.84344V11.8211C2.87896 11.8675 2.89422 11.8984 2.90948 11.9293C2.92474 11.9602 2.95526 11.9756 2.98578 11.9911C3.0163 12.0065 3.06208 12.0065 3.12312 12.0065H3.27572V12.4391H1.96338V11.9911H2.08546C2.16176 11.9911 2.22279 11.9911 2.25331 11.9756C2.28383 11.9602 2.29909 11.9447 2.31435 11.9138C2.32961 11.8829 2.32961 11.8211 2.32961 11.7439V9.92069C2.32961 9.84344 2.32961 9.78163 2.31435 9.75073C2.29909 9.71983 2.28383 9.68893 2.25331 9.67348C2.23805 9.65803 2.19228 9.65803 2.13124 9.65803H1.96338V9.20996Z" fill="white"/>
<path d="M6.87698 10.4918L6.41919 10.5382C6.40393 10.4609 6.38867 10.3837 6.38867 10.3064C6.38867 10.0901 6.43445 9.88927 6.54127 9.71931C6.64809 9.54935 6.80069 9.42575 7.01432 9.31759C7.22796 9.20944 7.47211 9.16309 7.73153 9.16309C7.97568 9.16309 8.18932 9.20944 8.3877 9.30214C8.58607 9.39485 8.73867 9.51845 8.83023 9.65751C8.92179 9.81201 8.98283 9.96652 8.98283 10.121C8.98283 10.291 8.95231 10.4455 8.87601 10.5845C8.79971 10.7391 8.67763 10.8936 8.49452 11.0481C8.3114 11.2026 7.96042 11.4343 7.42633 11.7742H8.18932C8.3114 11.7742 8.3877 11.7742 8.43348 11.7588C8.464 11.7433 8.49452 11.7124 8.52503 11.6815C8.55555 11.6352 8.57081 11.5734 8.58607 11.4807L8.60133 11.3725H9.04387L8.83023 12.5622H8.52503V12.4386H6.40393V11.9906C6.70913 11.7897 7.10588 11.4807 7.57893 11.079C7.82309 10.8781 7.99094 10.6927 8.06724 10.5536C8.12828 10.4455 8.1588 10.3373 8.1588 10.2137C8.1588 10.0747 8.09776 9.96652 7.99094 9.85836C7.88413 9.76566 7.73153 9.71931 7.53315 9.71931C7.39581 9.71931 7.27374 9.75021 7.16692 9.79656C7.0601 9.84291 6.9838 9.92017 6.92276 10.0129C6.86172 10.1056 6.8312 10.2137 6.8312 10.3219C6.86172 10.3682 6.86172 10.43 6.87698 10.4918Z" fill="white"/>
<path d="M9.47119 9.20996H11.165C11.3787 9.20996 11.5618 9.22541 11.6991 9.27176C11.8365 9.31812 11.9585 9.37992 12.0653 9.47262C12.1722 9.56533 12.2485 9.67348 12.2942 9.79709C12.3553 9.92069 12.3705 10.0443 12.3705 10.1834C12.3705 10.4615 12.2637 10.6932 12.0501 10.8786C11.8365 11.064 11.5465 11.1567 11.1803 11.1567H10.6309V11.7593C10.6309 11.8366 10.6309 11.8829 10.6462 11.8984C10.6615 11.9293 10.6767 11.9447 10.7072 11.9602C10.7378 11.9756 10.7835 11.9756 10.8446 11.9756H11.0124V12.4391H9.47119V11.9911H9.57801C9.66957 11.9911 9.73061 11.9911 9.76113 11.9756C9.79165 11.9602 9.80691 11.9447 9.82217 11.9138C9.85269 11.8829 9.85269 11.8211 9.85269 11.7284V9.93614C9.85269 9.84344 9.85269 9.76618 9.83743 9.73528C9.82217 9.70438 9.80691 9.67348 9.77639 9.65803C9.74587 9.65803 9.70009 9.65803 9.62379 9.65803H9.47119V9.20996ZM10.6462 9.73528V10.6469H10.9209C11.0887 10.6469 11.2108 10.6314 11.2871 10.6005C11.3634 10.5696 11.4244 10.5078 11.4702 10.446C11.516 10.3688 11.5465 10.2915 11.5465 10.1834C11.5465 10.0288 11.4855 9.92069 11.3787 9.82799C11.3024 9.76618 11.165 9.73528 11.0124 9.73528H10.6462Z" fill="white"/>
<path d="M0.522851 1.47168L0.431055 2H0.189844L0.436914 0.578125L0.929101 0.579102C1.07754 0.579102 1.19408 0.619792 1.27871 0.701172C1.36335 0.781901 1.40013 0.888997 1.38906 1.02246C1.37734 1.16048 1.32103 1.27018 1.22012 1.35156C1.11921 1.43229 0.987044 1.47266 0.823633 1.47266L0.522851 1.47168ZM0.557031 1.27344L0.833398 1.27539C0.920638 1.27539 0.991927 1.25326 1.04727 1.20898C1.10326 1.16471 1.13678 1.10286 1.14785 1.02344C1.15697 0.951172 1.14329 0.893229 1.10684 0.849609C1.07103 0.805339 1.01667 0.781576 0.94375 0.77832L0.642969 0.777344L0.557031 1.27344ZM2.18672 2.01953C2.09427 2.01758 2.01289 1.99544 1.94258 1.95312C1.87292 1.91081 1.81855 1.84961 1.77949 1.76953C1.74043 1.6888 1.71829 1.59733 1.71309 1.49512C1.70853 1.41374 1.71569 1.31868 1.73457 1.20996C1.7541 1.10124 1.78828 1.00228 1.83711 0.913086C1.88659 0.823242 1.94551 0.75 2.01387 0.693359C2.1265 0.600911 2.25671 0.55599 2.40449 0.558594C2.54512 0.561198 2.6571 0.609701 2.74043 0.704102C2.82441 0.798503 2.87031 0.926107 2.87812 1.08691C2.88203 1.16764 2.87454 1.26042 2.85566 1.36523C2.83743 1.4694 2.80553 1.56543 2.75996 1.65332C2.71504 1.74056 2.65905 1.81348 2.59199 1.87207C2.47611 1.97363 2.34102 2.02279 2.18672 2.01953ZM2.63105 1.25098L2.63984 1.14746C2.64375 1.0765 2.63757 1.01107 2.62129 0.951172C2.60501 0.890625 2.57734 0.844727 2.53828 0.813477C2.49987 0.781576 2.45104 0.764648 2.3918 0.762695C2.30977 0.760091 2.23685 0.783203 2.17305 0.832031C2.1099 0.880859 2.05846 0.955078 2.01875 1.05469C1.97969 1.1543 1.9569 1.2793 1.95039 1.42969C1.94388 1.54883 1.96211 1.64258 2.00508 1.71094C2.04805 1.7793 2.1125 1.81478 2.19844 1.81738C2.31107 1.82064 2.40384 1.77832 2.47676 1.69043C2.55033 1.60254 2.5985 1.47884 2.62129 1.31934L2.63105 1.25098ZM4.33398 1.64648L4.71289 0.578125H4.95801L4.41699 2H4.18652L4.08789 0.964844L3.6582 2H3.42578L3.33008 0.578125H3.56348L3.61035 1.6416L4.03906 0.578125H4.24121L4.33398 1.64648ZM6.02422 1.36523H5.45781L5.38164 1.80273H6.04375L6.00957 2H5.10625L5.35234 0.578125H6.2498L6.21465 0.777344H5.55937L5.49102 1.16992H6.0584L6.02422 1.36523ZM7.02207 1.45215H6.75059L6.65488 2H6.41367L6.66074 0.578125L7.10898 0.579102C7.26328 0.579102 7.38145 0.616211 7.46348 0.69043C7.54551 0.764648 7.58099 0.867839 7.56992 1C7.56276 1.0918 7.53216 1.17155 7.47813 1.23926C7.42409 1.30632 7.34824 1.35905 7.25059 1.39746L7.46055 1.98535L7.45957 2H7.20371L7.02207 1.45215ZM6.78379 1.25391L7.01719 1.25586C7.10117 1.25586 7.17116 1.23405 7.22715 1.19043C7.28379 1.14616 7.31699 1.08626 7.32676 1.01074C7.33652 0.937174 7.3235 0.880859 7.2877 0.841797C7.25189 0.802083 7.19753 0.780924 7.12461 0.77832L6.8668 0.777344L6.78379 1.25391ZM8.75234 1.36523H8.18594L8.10977 1.80273H8.77187L8.7377 2H7.83437L8.08047 0.578125H8.97793L8.94277 0.777344H8.2875L8.21914 1.16992H8.78652L8.75234 1.36523ZM9.1418 2L9.38789 0.578125L9.77266 0.579102C9.89115 0.579102 9.99303 0.608724 10.0783 0.667969C10.1643 0.726562 10.2264 0.807943 10.2648 0.912109C10.3033 1.01562 10.315 1.12988 10.3 1.25488L10.2893 1.33203C10.2697 1.46289 10.2264 1.5791 10.1594 1.68066C10.093 1.78158 10.007 1.86003 9.90156 1.91602C9.79609 1.97201 9.68021 2 9.55391 2H9.1418ZM9.59492 0.777344L9.41719 1.80273L9.55976 1.80371C9.68867 1.80371 9.79544 1.76302 9.88008 1.68164C9.96536 1.59961 10.0201 1.48665 10.0441 1.34277C10.0611 1.24382 10.0673 1.15755 10.0627 1.08398C10.0568 0.989583 10.0292 0.91569 9.97969 0.862305C9.93086 0.808919 9.86282 0.780924 9.77559 0.77832L9.59492 0.777344ZM11.3133 2L11.5604 0.578125L11.9969 0.579102C12.1505 0.579753 12.2658 0.613281 12.3426 0.679688C12.4201 0.745443 12.4542 0.836914 12.4451 0.954102C12.4334 1.09212 12.3491 1.19596 12.1922 1.26562C12.2508 1.28646 12.296 1.32454 12.3279 1.37988C12.3598 1.43522 12.3735 1.5013 12.3689 1.57812C12.3598 1.70833 12.3074 1.8112 12.2117 1.88672C12.1167 1.96224 11.991 2 11.8348 2H11.3133ZM11.6658 1.3584L11.5887 1.80273L11.8416 1.80371C11.9178 1.80371 11.9826 1.78353 12.0359 1.74316C12.0893 1.7028 12.1209 1.64746 12.1307 1.57715C12.1398 1.51009 12.1297 1.45768 12.1004 1.41992C12.0711 1.38216 12.0226 1.36198 11.9549 1.35938L11.6658 1.3584ZM11.6971 1.17676L11.9188 1.17773C11.9982 1.17773 12.063 1.15885 12.1131 1.12109C12.1632 1.08333 12.1928 1.03223 12.202 0.967773C12.2182 0.846029 12.1567 0.782878 12.0174 0.77832L11.7664 0.777344L11.6971 1.17676ZM13.2672 1.25L13.7008 0.578125H13.9801L13.3531 1.48926L13.2643 2H13.0221L13.1158 1.46387L12.8121 0.578125H13.067L13.2672 1.25Z" fill="#151515"/>
</svg>
