<svg width="73" height="20" viewBox="0 0 73 20" fill="none" xmlns="http://www.w3.org/2000/svg">
<g clip-path="url(#clip0)">
<path d="M7.62206 18.4788L5.43457 16.3509V3.6329L7.62206 1.52148V18.4788Z" fill="#213263"/>
<path d="M4.32372 15.2951L2.13623 13.1672V6.81649L4.32372 4.70508V15.2951Z" fill="#213263"/>
<path d="M8.71582 15.2951L10.9204 13.1672V6.81649L8.71582 4.70508V15.2951Z" fill="#2DAFE6"/>
<path d="M30.2661 9.60407C30.7104 9.22468 30.9497 8.68033 30.9497 7.97102C30.9497 6.46994 29.9414 5.74414 27.8564 5.74414H23.8403V14.2228H28.2837C30.4712 14.2228 31.6845 13.299 31.6845 11.6165C31.6674 10.6598 31.1718 9.95047 30.2661 9.60407ZM28.0102 9.1422H25.3784V7.12976H27.9077C29.2578 7.12976 29.3774 7.59163 29.3774 8.0535C29.3774 8.79579 28.9331 9.1422 28.0102 9.1422ZM25.3784 10.5113H28.1469C29.8559 10.5113 30.0952 11.0722 30.0952 11.633C30.0952 12.5073 29.5312 12.8537 28.1299 12.8537H25.3784V10.5113Z" fill="#213263"/>
<path d="M43.8183 13.9095C43.7329 11.3197 43.4765 8.66394 43.0834 6.02467L43.0493 5.76074H41.665L38.5888 11.1053L35.4785 5.76074H34.0942L34.0601 6.02467C33.667 8.66394 33.4277 11.3197 33.3252 13.9095L33.3081 14.2394H34.8291V13.9425C34.8804 12.1115 35.0342 9.98357 35.2563 8.31753L38.0932 13.1012H39.0503L41.8872 8.31753C42.0922 9.98357 42.2631 12.1115 42.3144 13.9425V14.2394H43.8354L43.8183 13.9095Z" fill="#213263"/>
<path d="M19.6875 9.38984L18.269 9.09293C17.1753 8.87849 16.8164 8.61456 16.8164 8.05371C16.8164 7.44338 17.5513 7.09698 18.7646 7.09698C19.4482 7.09698 20.2514 7.26193 20.9692 7.55885L21.9775 6.63511L21.7895 6.53613C20.9008 6.04127 19.8926 5.77734 18.8159 5.77734C16.7139 5.77734 15.3467 6.68459 15.3467 8.0867C15.3467 9.32386 16.1841 10.0827 17.9101 10.4126L19.3799 10.7095C20.747 10.9734 20.747 11.5178 20.747 11.7322C20.747 12.458 19.978 12.8869 18.6792 12.8869C17.8076 12.8869 16.7651 12.6065 15.979 12.1776L14.9878 13.0848L15.1416 13.1838C16.0815 13.8271 17.4316 14.2065 18.7475 14.2065C20.9179 14.2065 22.2168 13.2498 22.2168 11.6662C22.2168 10.4456 21.4306 9.73625 19.6875 9.38984Z" fill="#213263"/>
<path d="M58.02 12.1777V9.06002H57.5073L57.4389 9.42292C56.6699 9.01053 56.1572 8.97754 55.6958 8.97754C54.209 8.97754 53.0811 10.0992 53.0811 11.5838C53.0811 13.1179 54.1235 14.1901 55.6274 14.1901C56.3965 14.1901 56.9604 13.9757 57.4731 13.4643L57.6269 14.1076H58.2763L58.2592 14.0416C58.2251 14.0416 58.02 13.0519 58.02 12.1777ZM55.6103 13.5468C54.5166 13.5468 53.7646 12.755 53.7646 11.5838C53.7646 10.4291 54.5508 9.62086 55.6787 9.62086C56.1059 9.62086 56.7553 9.70334 57.3193 10.0662V12.5241C57.1484 13.1839 56.5161 13.5468 55.6103 13.5468Z" fill="#2DAFE6"/>
<path d="M61.7798 8.97754C61.2158 8.97754 60.5151 9.24147 60.0708 9.63736L60.0024 9.06002H59.4556V14.1241H60.1392V10.3467C60.3784 10.0662 60.8911 9.63736 61.6943 9.63736C62.7368 9.63736 63.2324 10.1157 63.2324 11.1384V14.1406H63.916V10.9735C63.916 9.71983 63.1128 8.97754 61.7798 8.97754Z" fill="#2DAFE6"/>
<path d="M66.7187 11.1054L69.6924 9.07643H68.6328L68.6157 9.09292C68.3765 9.24138 66.394 10.528 66.0181 10.8414V6.91553H65.3345V14.124H66.0181V11.3033C66.4111 11.7817 68.6841 13.8436 68.9575 14.1075L68.9746 14.124H69.9487L66.7187 11.1054Z" fill="#2DAFE6"/>
<path d="M52.1411 11.1225C51.9873 10.875 51.7822 10.6771 51.5429 10.5286C51.3037 10.3802 51.0644 10.2812 50.8252 10.2317V10.1822C51.1157 10.0667 51.355 9.8688 51.5429 9.60488C51.7309 9.32445 51.8335 9.02754 51.8335 8.68113C51.8335 8.40071 51.7651 8.13678 51.6113 7.87286C51.4575 7.60893 51.1841 7.37799 50.8081 7.21304C50.4321 7.03159 49.8852 6.94911 49.1846 6.93262C48.706 6.93262 48.3301 6.94911 48.0395 6.96561C47.749 6.9821 47.5269 6.9986 47.356 7.03159V13.9927C47.5098 14.0092 47.749 14.0256 48.0395 14.0421C48.3472 14.0586 48.7402 14.0751 49.2529 14.0751C50.0903 14.0751 50.7226 13.9762 51.1841 13.7782C51.6284 13.5803 51.9531 13.3328 52.124 13.0359C52.2949 12.7225 52.3803 12.3926 52.3803 12.0462C52.3974 11.6668 52.312 11.3699 52.1411 11.1225ZM48.3984 7.75739C48.5522 7.7244 48.8428 7.7079 49.3042 7.7079C49.9023 7.7244 50.3125 7.83987 50.5347 8.0708C50.7568 8.30174 50.8594 8.54917 50.8423 8.84609C50.8423 9.17599 50.7056 9.43992 50.4492 9.63787C50.1929 9.83581 49.8681 9.93478 49.458 9.95128H48.3984V7.75739ZM50.9448 12.8545C50.6714 13.1184 50.1929 13.2504 49.4922 13.2669C48.9795 13.2669 48.6035 13.2504 48.3984 13.2174V10.7431H49.6118C50.1587 10.7431 50.5688 10.8585 50.8764 11.0895C51.167 11.3204 51.3208 11.6008 51.3208 11.9472C51.3208 12.2936 51.2012 12.5905 50.9448 12.8545Z" fill="#2DAFE6"/>
</g>
<defs>
<clipPath id="clip0">
<rect width="67.8292" height="16.9573" fill="white" transform="translate(2.13623 1.52148)"/>
</clipPath>
</defs>
</svg>
