<svg width="36" height="16" viewBox="0 0 36 16" fill="none" xmlns="http://www.w3.org/2000/svg">
<path d="M19.9874 15.9997C19.7512 15.8823 19.4927 15.8823 19.2476 15.8165C18.6639 15.6567 18.6639 15.6661 18.7708 15.0364C18.8198 14.7451 18.8689 14.4538 18.9045 14.1577C18.9223 13.9886 18.9669 13.9557 19.1184 14.0356C19.6977 14.341 20.3127 14.4867 20.9633 14.4538C21.2351 14.4397 21.4936 14.3833 21.7119 14.2047C22.0105 13.9604 22.0283 13.6174 21.761 13.3401C21.5515 13.124 21.2886 12.9924 21.0301 12.8561C20.7449 12.7058 20.4686 12.5413 20.2102 12.3392C19.0248 11.4229 19.359 10.0179 20.023 9.3225C20.5043 8.81501 21.1059 8.56597 21.761 8.45789C22.4829 8.34042 23.1914 8.4015 23.8911 8.62705C24.0604 8.68344 24.1139 8.75393 24.0782 8.93718C23.998 9.38829 23.9312 9.84409 23.8554 10.3187C23.3519 10.0602 22.8349 9.93337 22.2824 9.95216C22.0595 9.96156 21.8367 9.99915 21.6406 10.1072C21.244 10.3234 21.2084 10.7087 21.556 11.0047C21.8011 11.2115 22.0818 11.3478 22.3581 11.4981C22.7235 11.6908 23.0711 11.9163 23.3608 12.2218C24.154 13.0629 23.8866 14.4867 23.1424 15.1774C22.6522 15.6332 22.0684 15.8541 21.4357 15.9527C21.3956 15.9574 21.3421 15.9387 21.3243 15.9997C20.8786 15.9997 20.433 15.9997 19.9874 15.9997Z" fill="#025FAC"/>
<path d="M0.00096832 0.578142C-0.0079442 0.49826 0.0455309 0.423076 0.125744 0.418377C0.437682 0.399581 0.736251 0.319699 1.03928 0.258612C1.2309 0.22102 1.27992 0.272709 1.31111 0.45127C1.57848 1.93615 1.85477 3.42102 2.1266 4.91059C2.13552 4.96228 2.13552 5.01867 2.18008 5.06566C2.25138 5.01397 2.2692 4.92939 2.3004 4.85421C2.99558 3.39753 3.69075 1.94554 4.37702 0.484163C4.44386 0.338495 4.51962 0.277408 4.68004 0.282107C4.95187 0.296204 5.22816 0.291505 5.50445 0.282107C5.66488 0.277408 5.71389 0.291505 5.62031 0.474765C5.14795 1.41456 4.6845 2.35435 4.21659 3.28945C3.66847 4.38431 3.11589 5.47917 2.57223 6.57873C2.50539 6.7103 2.43854 6.77609 2.28703 6.76669C2.01965 6.75259 1.75228 6.75729 1.4849 6.76669C1.36458 6.77139 1.30665 6.73849 1.27992 6.59753C0.883308 4.69914 0.477788 2.80545 0.0767248 0.90707C0.0588997 0.81779 0.0544434 0.803693 0.0143371 0.653326C0.00988084 0.629831 0.00542458 0.606336 0.00096832 0.578142Z" fill="#0360AC"/>
<path d="M27.425 0C27.1086 2.16623 26.7923 4.33245 26.4803 6.49868C26.458 6.66784 26.409 6.76182 26.2218 6.73833C26.0481 6.71483 25.8653 6.72423 25.6871 6.73833C25.5534 6.74772 25.4999 6.69604 25.5133 6.55037C25.5222 6.42819 25.5133 6.30602 25.5133 6.15565C25.3484 6.28723 25.2103 6.4094 25.0588 6.51748C24.6711 6.79002 24.2433 6.88869 23.7887 6.79471C23.3297 6.70074 23.0267 6.4 22.8752 5.9348C22.5543 4.93862 22.9554 3.38796 23.6996 2.70191C24.319 2.13333 25.032 2.06755 25.7851 2.2696C25.9946 2.32599 26.0169 2.26021 26.0391 2.08165C26.1149 1.50837 26.2085 0.939795 26.2842 0.371219C26.3065 0.211454 26.3555 0.155066 26.5115 0.131571C26.7254 0.0986784 26.9482 0.108076 27.1488 0C27.2468 0 27.3359 0 27.425 0ZM23.8645 4.91043C23.8734 4.97621 23.8734 5.05609 23.8868 5.13128C23.9848 5.74214 24.3814 5.97239 24.9251 5.72805C25.1345 5.63407 25.3039 5.4931 25.4687 5.32864C25.5534 5.24405 25.598 5.15477 25.6158 5.0279C25.6871 4.48752 25.7762 3.95184 25.8564 3.41145C25.8653 3.34097 25.8832 3.27518 25.7985 3.23289C25.3974 3.03554 24.6889 2.94626 24.2967 3.49134C23.9937 3.91424 23.9046 4.39354 23.8645 4.91043Z" fill="#0360AC"/>
<path d="M35.201 3.40702C34.8579 4.01789 34.595 4.63345 34.283 5.25842C33.9622 5.89278 33.6636 6.53654 33.3383 7.1662C33.0353 7.74887 32.5807 8.0684 31.9257 8.02141C31.792 8.01202 31.7207 7.97442 31.734 7.81466C31.7474 7.65019 31.6716 7.45284 31.7429 7.33536C31.8098 7.21789 32.0059 7.33536 32.1485 7.32597C32.5228 7.29307 32.808 6.91246 32.7278 6.53184C32.5273 5.54036 32.3312 4.54887 32.1217 3.55739C32.0905 3.40232 32.1306 3.36473 32.2599 3.35533C32.4292 3.34124 32.5985 3.31774 32.7679 3.28955C32.9105 3.26605 32.9729 3.30364 32.9996 3.47281C33.0932 4.13066 33.2046 4.77912 33.3116 5.43228C33.3205 5.49337 33.3383 5.54975 33.365 5.64843C33.677 4.95768 33.9934 4.30922 34.2652 3.63727C34.3721 3.37883 34.4969 3.27545 34.7554 3.30834C34.9069 3.32714 34.9336 3.33654 35.152 3.36473C35.1876 3.36473 35.2099 3.37413 35.201 3.40702Z" fill="#0561AC"/>
<path d="M29.3318 15.8965C29.1179 15.8965 28.8996 15.8824 28.6857 15.9012C28.5297 15.9153 28.4807 15.8401 28.4584 15.6991C28.4138 15.4548 28.3559 15.2104 28.3203 14.9661C28.298 14.8345 28.2579 14.7781 28.1242 14.7828C27.4647 14.7922 26.8051 14.7875 26.1456 14.7828C26.0297 14.7828 25.9763 14.8204 25.9362 14.9379C25.8559 15.1963 25.7535 15.4501 25.6777 15.7085C25.6331 15.8636 25.5574 15.9059 25.4059 15.9012C24.9112 15.8918 24.4121 15.8871 23.913 15.9012C23.7169 15.9059 23.708 15.8448 23.7749 15.6803C24.4656 13.9511 25.1519 12.2172 25.8426 10.488C26.0164 10.051 26.1902 9.60927 26.364 9.17226C26.5422 8.72586 26.8096 8.5379 27.2775 8.5379C27.7098 8.5379 28.1376 8.5426 28.5698 8.5332C28.6946 8.5332 28.7436 8.5661 28.7703 8.70706C29.2293 11.0519 29.6972 13.3919 30.1652 15.732C30.1919 15.8589 30.1741 15.9012 30.0493 15.8965C29.8086 15.8918 29.5725 15.8965 29.3318 15.8965ZM26.511 13.2792C26.9032 13.2792 27.2641 13.2792 27.6251 13.2792C27.9816 13.2792 27.986 13.2792 27.9147 12.9032C27.7677 12.142 27.6162 11.3808 27.4557 10.5679C27.1304 11.4936 26.823 12.3723 26.511 13.2792Z" fill="#015FAC"/>
<path d="M12.1845 12.2453C12.3316 12.6306 12.3717 13.0441 12.4742 13.5046C12.5856 13.1898 12.6792 12.9313 12.7727 12.6682C13.2362 11.3525 13.6996 10.0415 14.1586 8.72106C14.2077 8.5754 14.2745 8.51901 14.4305 8.52371C14.992 8.5331 15.5579 8.52841 16.1149 8.52841C16.1595 8.59419 16.1149 8.64118 16.0971 8.68817C15.1969 11.0236 14.2923 13.3637 13.3922 15.699C13.3387 15.8353 13.2808 15.9058 13.1203 15.9011C12.6079 15.887 12.0954 15.8917 11.5829 15.9011C11.4403 15.9058 11.3779 15.8635 11.3423 15.7084C10.8566 13.749 10.3664 11.7895 9.87172 9.83002C9.84498 9.72665 9.81824 9.62327 9.7915 9.51989C9.84944 9.50579 9.88954 9.53869 9.9341 9.56688C10.3485 9.84412 10.7273 10.1637 11.0749 10.5349C11.5428 11.0377 11.8859 11.6297 12.1845 12.2453Z" fill="#025FAB"/>
<path d="M16.6452 15.8966C16.4001 15.8966 16.155 15.8919 15.9099 15.8966C15.7896 15.9013 15.7361 15.8731 15.7584 15.7274C16.0168 14.0593 16.2753 12.3865 16.5338 10.7183C16.6318 10.0699 16.7343 9.4261 16.8279 8.77764C16.8546 8.60378 16.8947 8.5098 17.0997 8.5192C17.5498 8.54269 18.0043 8.53329 18.4589 8.5239C18.6326 8.5192 18.695 8.53799 18.6638 8.75885C18.3474 10.7606 18.0444 12.7624 17.7369 14.7641C17.6879 15.0884 17.63 15.4079 17.5943 15.7368C17.581 15.8731 17.5275 15.906 17.4116 15.9013C17.1532 15.8919 16.8992 15.8966 16.6452 15.8966Z" fill="#025FAC"/>
<path d="M22.1619 5.38989C22.1619 5.56845 22.1396 5.71412 22.1664 5.84569C22.2332 6.20751 22.0594 6.37197 21.7697 6.50354C21.1771 6.77608 20.5666 6.88886 19.9293 6.79488C19.1807 6.6868 18.7172 6.20751 18.5969 5.41338C18.4543 4.48298 18.7841 3.0404 19.8402 2.41544C20.317 2.1335 20.8295 2.04892 21.3642 2.17109C22.0371 2.32616 22.4248 2.86654 22.4738 3.69826C22.4917 3.9708 22.456 4.24334 22.4204 4.51588C22.4025 4.65685 22.3446 4.69914 22.2065 4.69914C21.4266 4.68974 20.6512 4.70384 19.8714 4.68974C19.6709 4.68504 19.6218 4.74613 19.6263 4.95288C19.6486 5.58254 19.9783 5.93967 20.5755 5.94436C21.0567 5.94906 21.489 5.7799 21.9034 5.53555C21.9792 5.49796 22.0549 5.45097 22.1619 5.38989ZM19.7644 3.98959C20.3036 3.98959 20.8072 3.98959 21.3063 3.98959C21.3598 3.98959 21.44 4.01779 21.4444 3.92381C21.4578 3.63717 21.4355 3.35993 21.2484 3.12968C21.079 2.92292 20.8473 2.87124 20.6022 2.93702C20.1031 3.07329 19.9115 3.4962 19.7644 3.98959Z" fill="#0360AC"/>
<path d="M8.23164 5.40376C8.23164 5.59172 8.20936 5.76089 8.2361 5.91595C8.28512 6.22139 8.14252 6.35766 7.90188 6.47513C7.29138 6.77117 6.66304 6.89334 5.99906 6.79466C5.21476 6.67719 4.73794 6.165 4.66218 5.31918C4.57752 4.3418 4.80924 3.45839 5.4955 2.75355C6.03471 2.20377 6.69424 2.0252 7.42506 2.17557C8.08459 2.31184 8.49011 2.85222 8.53913 3.62285C8.55695 3.91889 8.54358 4.21493 8.49902 4.51096C8.47674 4.66603 8.40989 4.70832 8.26284 4.70362C7.48299 4.69422 6.70315 4.70832 5.9233 4.69422C5.72723 4.68952 5.68712 4.7694 5.69604 4.95266C5.73614 5.67161 6.15949 6.03343 6.86803 5.93945C7.11312 5.90655 7.34931 5.85487 7.57658 5.74679C7.79048 5.64811 7.99546 5.52594 8.23164 5.40376ZM5.84755 3.97058C5.8832 3.97998 5.90102 3.98468 5.91439 3.98468C6.3511 3.98468 6.78782 3.98468 7.22453 3.98468C7.54093 3.98468 7.54093 3.98468 7.51419 3.65575C7.46517 3.04018 7.00617 2.73475 6.50262 2.99319C6.12384 3.19525 5.9545 3.55707 5.84755 3.97058Z" fill="#0260AC"/>
<path d="M16.1324 3.14332C15.669 3.14332 15.6645 3.14332 15.5932 3.62731C15.4506 4.5906 15.3125 5.55389 15.1788 6.52188C15.1565 6.68634 15.103 6.74743 14.9426 6.73803C14.7153 6.72394 14.4836 6.72863 14.2519 6.73803C14.1093 6.74273 14.0781 6.70514 14.1004 6.55477C14.2608 5.48341 14.4123 4.41204 14.5727 3.34067C14.595 3.19031 14.5905 3.13862 14.4257 3.14332C13.9756 3.14802 13.9756 3.13862 14.0513 2.65462C14.1182 2.21762 14.1182 2.20352 14.5326 2.21762C14.702 2.22232 14.751 2.15653 14.7688 2.00147C14.7911 1.79001 14.8223 1.58326 14.8579 1.3765C14.9871 0.629368 15.4684 0.15947 16.1903 0.0983836C16.3953 0.0795877 16.6048 0.0983836 16.8142 0.0936846C16.9301 0.0889857 16.9702 0.145373 16.9657 0.262848C16.9613 0.474301 16.9568 0.685755 16.9657 0.897209C16.9702 1.01938 16.9212 1.03348 16.8187 1.02878C16.0566 0.991188 15.9363 1.10396 15.8427 1.89809C15.8071 2.21292 15.8071 2.21292 16.1279 2.21292C16.6092 2.21292 16.6092 2.21292 16.6092 2.65462C16.6092 3.14332 16.6092 3.14332 16.1324 3.14332Z" fill="#0360AC"/>
<path d="M29.6706 3.62283C29.8221 3.51005 29.9781 3.40197 30.1474 3.33149C30.8382 3.04015 31.4487 3.38318 31.5823 4.14911C31.6982 4.80697 31.4888 6.00051 30.7178 6.4892C30.2098 6.81343 29.6617 6.80873 29.1047 6.73355C28.9309 6.71005 28.7571 6.64896 28.5833 6.61607C28.4318 6.58788 28.3783 6.52209 28.405 6.34823C28.6279 4.87745 28.8462 3.40667 29.0557 1.9312C29.0779 1.78553 29.1225 1.73384 29.2606 1.72444C29.4211 1.71504 29.5815 1.67275 29.7419 1.64456C29.8711 1.62106 29.9246 1.63516 29.8979 1.80432C29.8088 2.33531 29.733 2.86629 29.6572 3.39728C29.6528 3.46776 29.6261 3.53824 29.6706 3.62283ZM30.7669 4.70359C30.7624 4.43105 30.7312 4.16321 30.4505 4.04103C30.1073 3.89537 29.5325 4.26189 29.4745 4.6519C29.4211 5.03722 29.3676 5.42253 29.3007 5.80785C29.274 5.95822 29.323 6.0146 29.4523 6.0475C30.0449 6.19316 30.4906 5.92532 30.6688 5.30506C30.7312 5.1077 30.7669 4.90565 30.7669 4.70359Z" fill="#0461AC"/>
<path d="M10.3664 2.97903C10.4911 2.87565 10.6293 2.76288 10.763 2.63601C11.0482 2.36817 11.3646 2.1896 11.7478 2.13792C11.8637 2.11912 11.8859 2.15671 11.8859 2.26949C11.8815 2.52793 11.8815 2.78637 11.8948 3.04482C11.9038 3.20458 11.8547 3.26097 11.7032 3.27977C11.2576 3.34085 10.8744 3.55231 10.5268 3.84364C10.3173 4.0222 10.2193 4.23366 10.1836 4.5156C10.099 5.20634 9.98311 5.8877 9.88953 6.57375C9.87171 6.70532 9.82269 6.73821 9.70683 6.73351C9.46173 6.72411 9.21664 6.72411 8.97154 6.73351C8.8334 6.73821 8.78884 6.69592 8.81112 6.54555C9.02056 5.14526 9.22555 3.74027 9.43054 2.33527C9.44391 2.23659 9.47956 2.199 9.57314 2.2037C9.79595 2.2084 10.0188 2.2131 10.2416 2.2037C10.3619 2.199 10.3753 2.26009 10.3708 2.35877C10.3664 2.58432 10.3664 2.80047 10.3664 2.97903Z" fill="#0461AC"/>
<path d="M17.0821 6.73348C16.9706 6.73348 16.8592 6.72408 16.7478 6.73818C16.5696 6.76167 16.5339 6.68649 16.5607 6.51263C16.7657 5.14523 16.9706 3.77313 17.1667 2.40103C17.189 2.23656 17.2514 2.19897 17.394 2.20837C17.6213 2.21777 17.853 2.22247 18.0847 2.20837C18.2362 2.19897 18.2763 2.25536 18.2541 2.40573C18.1426 3.14347 18.0357 3.8859 17.9243 4.62364C17.8307 5.2533 17.7282 5.88297 17.6525 6.51733C17.6302 6.70999 17.5544 6.74758 17.3984 6.73348C17.287 6.72878 17.1845 6.73348 17.0821 6.73348Z" fill="#0561AD"/>
<path d="M12.3983 6.73362C11.8591 6.73362 11.8546 6.73362 11.9304 6.22613C12.1175 4.94801 12.3136 3.66989 12.4919 2.39177C12.5142 2.23201 12.5676 2.20381 12.7013 2.20851C12.9286 2.21791 13.1603 2.22261 13.392 2.20851C13.5525 2.19911 13.597 2.2555 13.5703 2.41997C13.4544 3.1671 13.3475 3.91424 13.2361 4.66137C13.1425 5.29103 13.04 5.9207 12.9598 6.55506C12.9375 6.71482 12.884 6.74771 12.7503 6.73832C12.6389 6.72892 12.5186 6.73362 12.3983 6.73362Z" fill="#0561AD"/>
<path d="M12.1846 12.2454C11.8816 11.6298 11.5429 11.0377 11.075 10.5396C10.7319 10.1684 10.3531 9.84889 9.93421 9.57165C9.88965 9.54346 9.84508 9.51056 9.79161 9.52466C9.74259 9.40249 9.62227 9.37899 9.52869 9.3273C9.06524 9.06416 8.57505 8.86211 8.06704 8.71174C8.01356 8.69764 7.91107 8.71174 7.91998 8.60836C7.92889 8.48149 8.03584 8.53788 8.09377 8.53788C8.99839 8.53318 9.90302 8.53318 10.8121 8.53788C11.3379 8.54258 11.5741 8.74463 11.6766 9.28031C11.8504 10.1778 12.0153 11.0706 12.1802 11.9681C12.198 12.0574 12.1846 12.1514 12.1846 12.2454Z" fill="#FDA202"/>
<path d="M13.3655 0.183152C13.6997 0.183152 13.918 0.408703 13.9136 0.747029C13.9091 1.16054 13.5794 1.48477 13.1738 1.48007C12.8485 1.47537 12.6213 1.25452 12.6213 0.939686C12.6123 0.530876 12.9599 0.178453 13.3655 0.183152Z" fill="#0561AC"/>
<path d="M18.5836 0.742588C18.5791 1.1467 18.2449 1.48503 17.8438 1.48033C17.5052 1.47563 17.2824 1.25008 17.2913 0.921148C17.3002 0.512338 17.6344 0.178711 18.031 0.178711C18.3608 0.178711 18.588 0.408961 18.5836 0.742588Z" fill="#0561AC"/>
</svg>
